<?xml version="1.0" encoding="UTF-8" standalone="no"?>
<svg
   xmlns:dc="http://purl.org/dc/elements/1.1/"
   xmlns:cc="http://creativecommons.org/ns#"
   xmlns:rdf="http://www.w3.org/1999/02/22-rdf-syntax-ns#"
   xmlns:svg="http://www.w3.org/2000/svg"
   xmlns="http://www.w3.org/2000/svg"
   xmlns:sodipodi="http://sodipodi.sourceforge.net/DTD/sodipodi-0.dtd"
   xmlns:inkscape="http://www.inkscape.org/namespaces/inkscape"
   width="225"
   height="375"
   viewBox="0 0 59.531249 99.218753"
   version="1.1"
   id="svg8"
   inkscape:version="1.0.1 (1.0.1+r73)"
   sodipodi:docname="clubs-4.svg">
  <defs
     id="defs2" />
  <sodipodi:namedview
     id="base"
     pagecolor="#606060"
     bordercolor="#000000"
     borderopacity="1"
     inkscape:pageopacity="1"
     inkscape:pageshadow="2"
     inkscape:zoom="1.0000001"
     inkscape:cx="126.74177"
     inkscape:cy="126.88178"
     inkscape:document-units="px"
     inkscape:current-layer="layer1"
     showgrid="false"
     units="px"
     inkscape:window-width="1600"
     inkscape:window-height="874"
     inkscape:window-x="0"
     inkscape:window-y="0"
     inkscape:window-maximized="1"
     showguides="false"
     inkscape:guide-bbox="true"
     inkscape:document-rotation="0"
     inkscape:pagecheckerboard="false"
     inkscape:showpageshadow="false"
     inkscape:snap-page="true"
     showborder="false"
     inkscape:snap-smooth-nodes="true"
     inkscape:snap-midpoints="true"
     inkscape:object-paths="true">
    <sodipodi:guide
       position="5.2916665,93.927079"
       orientation="1,0"
       id="guide48"
       inkscape:locked="false" />
    <sodipodi:guide
       position="5.2916664,93.927082"
       orientation="0,-1"
       id="guide35" />
    <sodipodi:guide
       position="54.239581,5.2916578"
       orientation="0,-1"
       id="guide37" />
    <sodipodi:guide
       position="54.239581,5.2916578"
       orientation="1,0"
       id="guide39" />
  </sodipodi:namedview>
  <metadata
     id="metadata5">
    <rdf:RDF>
      <cc:Work
         rdf:about="">
        <dc:format>image/svg+xml</dc:format>
        <dc:type
           rdf:resource="http://purl.org/dc/dcmitype/StillImage" />
        <dc:title />
      </cc:Work>
    </rdf:RDF>
  </metadata>
  <g
     inkscape:groupmode="layer"
     id="layer2"
     inkscape:label="Background"
     sodipodi:insensitive="true">
    <path
       id="rect932"
       style="fill:#ffffff;fill-opacity:1;stroke:none;stroke-width:0.296333;stroke-linecap:round;stroke-linejoin:round;stroke-miterlimit:4;stroke-dasharray:none;stroke-opacity:1;paint-order:markers fill stroke"
       d="M 3.5240648,0 H 56.007185 c 1.952332,0 3.524065,1.5717329 3.524065,3.5240648 V 95.694685 c 0,1.952332 -1.571733,3.524065 -3.524065,3.524065 H 3.5240648 C 1.5717329,99.21875 0,97.647017 0,95.694685 V 3.5240648 C 0,1.5717329 1.5717329,0 3.5240648,0 Z" />
    <path
       id="rect1541"
       style="opacity:1;fill:#e5e5e5;fill-opacity:1;stroke:none;stroke-width:0.296333;stroke-linecap:round;stroke-linejoin:round;stroke-miterlimit:4;stroke-dasharray:none;stroke-opacity:1;paint-order:markers fill stroke"
       d="M 3.9687499,2.6458333 H 55.562499 c 0.732896,0 1.322916,0.5900208 1.322916,1.3229166 V 95.250003 c 0,0.732895 -0.59002,1.322916 -1.322916,1.322916 H 3.9687499 c -0.7328958,0 -1.3229166,-0.590021 -1.3229166,-1.322916 V 3.9687499 c 0,-0.7328958 0.5900208,-1.3229166 1.3229166,-1.3229166 z" />
  </g>
  <g
     inkscape:label="Values"
     inkscape:groupmode="layer"
     id="layer1"
     transform="translate(0,-197.78122)">
    <text
       xml:space="preserve"
       style="font-style:normal;font-weight:normal;font-size:7.05557px;line-height:1.25;font-family:sans-serif;letter-spacing:0px;word-spacing:0px;fill:#000000;fill-opacity:1;stroke:none;stroke-width:0.264583"
       x="9.695859"
       y="209.58165"
       id="text52"><tspan
         sodipodi:role="line"
         id="tspan50"
         x="9.695859"
         y="209.58165"
         style="font-style:normal;font-variant:normal;font-weight:200;font-stretch:normal;font-size:7.05557px;font-family:Manrope;-inkscape-font-specification:'Manrope Ultra-Light';text-align:center;text-anchor:middle;fill:#000000;fill-opacity:1;stroke-width:0.264583">4</tspan></text>
    <path
       id="path1491"
       style="opacity:1;fill:none;fill-opacity:1;stroke:#000000;stroke-width:0.296333;stroke-linecap:round;stroke-linejoin:round;stroke-miterlimit:4;stroke-dasharray:none;stroke-opacity:1;paint-order:markers fill stroke"
       d="m 9.6658567,212.46952 a 1.3726597,1.3726597 0 0 0 -1.37266,1.37266 1.3726597,1.3726597 0 0 0 0.351208,0.91708 1.3726597,1.3726597 0 0 0 -0.282932,-0.0294 1.3726597,1.3726597 0 0 0 -1.37266,1.37265 1.3726597,1.3726597 0 0 0 1.37266,1.37266 1.3726597,1.3726597 0 0 0 1.299021,-0.92941 1.3726597,1.3726597 0 0 0 1.2992023,0.92941 1.3726597,1.3726597 0 0 0 1.37266,-1.37266 1.3726597,1.3726597 0 0 0 -1.37266,-1.37265 1.3726597,1.3726597 0 0 0 -0.270421,0.0269 1.3726597,1.3726597 0 0 0 0.349243,-0.91458 1.3726597,1.3726597 0 0 0 -1.3726613,-1.37265 z" />
    <text
       xml:space="preserve"
       style="font-style:normal;font-weight:normal;font-size:7.05557px;line-height:1.25;font-family:sans-serif;letter-spacing:0px;word-spacing:0px;fill:#000000;fill-opacity:1;stroke:none;stroke-width:0.264583"
       x="-49.835396"
       y="-285.19955"
       id="text1549"
       transform="scale(-1)"><tspan
         sodipodi:role="line"
         id="tspan1547"
         x="-49.835396"
         y="-285.19955"
         style="font-style:normal;font-variant:normal;font-weight:200;font-stretch:normal;font-size:7.05557px;font-family:Manrope;-inkscape-font-specification:'Manrope Ultra-Light';text-align:center;text-anchor:middle;fill:#000000;fill-opacity:1;stroke-width:0.264583">4</tspan></text>
    <path
       id="path1553"
       style="opacity:1;fill:none;fill-opacity:1;stroke:#000000;stroke-width:0.296333;stroke-linecap:round;stroke-linejoin:round;stroke-miterlimit:4;stroke-dasharray:none;stroke-opacity:1;paint-order:markers fill stroke"
       d="m 49.865401,282.31167 a 1.3726597,1.3726597 0 0 0 1.37266,-1.37266 1.3726597,1.3726597 0 0 0 -0.35121,-0.91708 1.3726597,1.3726597 0 0 0 0.28293,0.0294 1.3726597,1.3726597 0 0 0 1.37266,-1.37265 1.3726597,1.3726597 0 0 0 -1.37266,-1.37266 1.3726597,1.3726597 0 0 0 -1.29902,0.92941 1.3726597,1.3726597 0 0 0 -1.2992,-0.92941 1.3726597,1.3726597 0 0 0 -1.37266,1.37266 1.3726597,1.3726597 0 0 0 1.37266,1.37265 1.3726597,1.3726597 0 0 0 0.27042,-0.0269 1.3726597,1.3726597 0 0 0 -0.34924,0.91458 1.3726597,1.3726597 0 0 0 1.37266,1.37265 z" />
    <path
       id="path1491-93"
       style="opacity:1;fill:none;fill-opacity:1;stroke:#000000;stroke-width:0.296333;stroke-linecap:round;stroke-linejoin:round;stroke-miterlimit:4;stroke-dasharray:none;stroke-opacity:1;paint-order:markers fill stroke"
       d="m 19.187565,239.5961 a 1.3726597,1.3726597 0 0 0 -1.37266,1.37266 1.3726597,1.3726597 0 0 0 0.351208,0.91708 1.3726597,1.3726597 0 0 0 -0.282932,-0.0294 1.3726597,1.3726597 0 0 0 -1.37266,1.37265 1.3726597,1.3726597 0 0 0 1.37266,1.37266 1.3726597,1.3726597 0 0 0 1.29902,-0.92941 1.3726597,1.3726597 0 0 0 1.299203,0.92941 1.3726597,1.3726597 0 0 0 1.37266,-1.37266 1.3726597,1.3726597 0 0 0 -1.37266,-1.37265 1.3726597,1.3726597 0 0 0 -0.270421,0.0269 1.3726597,1.3726597 0 0 0 0.349243,-0.91458 1.3726597,1.3726597 0 0 0 -1.372661,-1.37265 z" />
    <path
       id="path1491-79"
       style="opacity:1;fill:none;fill-opacity:1;stroke:#000000;stroke-width:0.296333;stroke-linecap:round;stroke-linejoin:round;stroke-miterlimit:4;stroke-dasharray:none;stroke-opacity:1;paint-order:markers fill stroke"
       d="m 40.354231,239.5961 a 1.3726597,1.3726597 0 0 0 -1.37266,1.37266 1.3726597,1.3726597 0 0 0 0.351208,0.91708 1.3726597,1.3726597 0 0 0 -0.282932,-0.0294 1.3726597,1.3726597 0 0 0 -1.37266,1.37265 1.3726597,1.3726597 0 0 0 1.37266,1.37266 1.3726597,1.3726597 0 0 0 1.29902,-0.92941 1.3726597,1.3726597 0 0 0 1.299203,0.92941 1.3726597,1.3726597 0 0 0 1.37266,-1.37266 1.3726597,1.3726597 0 0 0 -1.37266,-1.37265 1.3726597,1.3726597 0 0 0 -0.270421,0.0269 1.3726597,1.3726597 0 0 0 0.349243,-0.91458 1.3726597,1.3726597 0 0 0 -1.372661,-1.37265 z" />
    <path
       id="path1491-97"
       style="opacity:1;fill:none;fill-opacity:1;stroke:#000000;stroke-width:0.296333;stroke-linecap:round;stroke-linejoin:round;stroke-miterlimit:4;stroke-dasharray:none;stroke-opacity:1;paint-order:markers fill stroke"
       d="m 19.17702,255.18509 a 1.3726597,1.3726597 0 0 0 1.37266,-1.37266 1.3726597,1.3726597 0 0 0 -0.351208,-0.91708 1.3726597,1.3726597 0 0 0 0.282932,0.0294 1.3726597,1.3726597 0 0 0 1.37266,-1.37265 1.3726597,1.3726597 0 0 0 -1.37266,-1.37266 1.3726597,1.3726597 0 0 0 -1.299021,0.92941 1.3726597,1.3726597 0 0 0 -1.299202,-0.92941 1.3726597,1.3726597 0 0 0 -1.37266,1.37266 1.3726597,1.3726597 0 0 0 1.37266,1.37265 1.3726597,1.3726597 0 0 0 0.270421,-0.0269 1.3726597,1.3726597 0 0 0 -0.349243,0.91458 1.3726597,1.3726597 0 0 0 1.372661,1.37265 z" />
    <path
       id="path1491-97-2"
       style="opacity:1;fill:none;fill-opacity:1;stroke:#000000;stroke-width:0.296333;stroke-linecap:round;stroke-linejoin:round;stroke-miterlimit:4;stroke-dasharray:none;stroke-opacity:1;paint-order:markers fill stroke"
       d="m 40.343686,255.18509 a 1.3726597,1.3726597 0 0 0 1.37266,-1.37266 1.3726597,1.3726597 0 0 0 -0.351208,-0.91708 1.3726597,1.3726597 0 0 0 0.282932,0.0294 1.3726597,1.3726597 0 0 0 1.372659,-1.37265 1.3726597,1.3726597 0 0 0 -1.372659,-1.37266 1.3726597,1.3726597 0 0 0 -1.299022,0.92941 1.3726597,1.3726597 0 0 0 -1.299201,-0.92941 1.3726597,1.3726597 0 0 0 -1.37266,1.37266 1.3726597,1.3726597 0 0 0 1.37266,1.37265 1.3726597,1.3726597 0 0 0 0.270421,-0.0269 1.3726597,1.3726597 0 0 0 -0.349243,0.91458 1.3726597,1.3726597 0 0 0 1.372661,1.37265 z" />
  </g>
</svg>
