<?xml version="1.0" encoding="UTF-8" standalone="no"?>
<svg
   xmlns:dc="http://purl.org/dc/elements/1.1/"
   xmlns:cc="http://creativecommons.org/ns#"
   xmlns:rdf="http://www.w3.org/1999/02/22-rdf-syntax-ns#"
   xmlns:svg="http://www.w3.org/2000/svg"
   xmlns="http://www.w3.org/2000/svg"
   xmlns:sodipodi="http://sodipodi.sourceforge.net/DTD/sodipodi-0.dtd"
   xmlns:inkscape="http://www.inkscape.org/namespaces/inkscape"
   width="225"
   height="375"
   viewBox="0 0 59.531249 99.218753"
   version="1.1"
   id="svg8"
   inkscape:version="1.0.1 (1.0.1+r73)"
   sodipodi:docname="spades-11.svg">
  <defs
     id="defs2" />
  <sodipodi:namedview
     id="base"
     pagecolor="#606060"
     bordercolor="#000000"
     borderopacity="1"
     inkscape:pageopacity="1"
     inkscape:pageshadow="2"
     inkscape:zoom="1.4142136"
     inkscape:cx="123.23935"
     inkscape:cy="235.76494"
     inkscape:document-units="px"
     inkscape:current-layer="layer1"
     showgrid="false"
     units="px"
     inkscape:window-width="1600"
     inkscape:window-height="874"
     inkscape:window-x="0"
     inkscape:window-y="0"
     inkscape:window-maximized="1"
     showguides="false"
     inkscape:guide-bbox="true"
     inkscape:document-rotation="0"
     inkscape:pagecheckerboard="false"
     inkscape:showpageshadow="false"
     inkscape:snap-page="true"
     showborder="false"
     inkscape:snap-smooth-nodes="true"
     inkscape:snap-midpoints="true"
     inkscape:object-paths="true">
    <sodipodi:guide
       position="5.2916665,93.927079"
       orientation="1,0"
       id="guide48"
       inkscape:locked="false" />
    <sodipodi:guide
       position="5.2916664,93.927082"
       orientation="0,-1"
       id="guide35" />
    <sodipodi:guide
       position="54.239581,5.2916578"
       orientation="0,-1"
       id="guide37" />
    <sodipodi:guide
       position="54.239581,5.2916578"
       orientation="1,0"
       id="guide39" />
  </sodipodi:namedview>
  <metadata
     id="metadata5">
    <rdf:RDF>
      <cc:Work
         rdf:about="">
        <dc:format>image/svg+xml</dc:format>
        <dc:type
           rdf:resource="http://purl.org/dc/dcmitype/StillImage" />
        <dc:title />
      </cc:Work>
    </rdf:RDF>
  </metadata>
  <g
     inkscape:groupmode="layer"
     id="layer2"
     inkscape:label="Background"
     style="display:inline">
    <path
       id="rect932"
       style="fill:#ffffff;fill-opacity:1;stroke:none;stroke-width:0.296333;stroke-linecap:round;stroke-linejoin:round;stroke-miterlimit:4;stroke-dasharray:none;stroke-opacity:1;paint-order:markers fill stroke"
       d="M 3.5240648,0 H 56.007185 c 1.952332,0 3.524065,1.5717329 3.524065,3.5240648 V 95.694685 c 0,1.952332 -1.571733,3.524065 -3.524065,3.524065 H 3.5240648 C 1.5717329,99.21875 0,97.647017 0,95.694685 V 3.5240648 C 0,1.5717329 1.5717329,0 3.5240648,0 Z" />
    <path
       id="rect1541"
       style="opacity:1;fill:#e5e5e5;fill-opacity:1;stroke:none;stroke-width:0.296333;stroke-linecap:round;stroke-linejoin:round;stroke-miterlimit:4;stroke-dasharray:none;stroke-opacity:1;paint-order:markers fill stroke"
       d="M 3.9687499,2.6458333 H 55.562499 c 0.732896,0 1.322916,0.5900208 1.322916,1.3229166 V 95.250003 c 0,0.732895 -0.59002,1.322916 -1.322916,1.322916 H 3.9687499 c -0.7328958,0 -1.3229166,-0.590021 -1.3229166,-1.322916 V 3.9687499 c 0,-0.7328958 0.5900208,-1.3229166 1.3229166,-1.3229166 z" />
  </g>
  <g
     inkscape:label="Values"
     inkscape:groupmode="layer"
     id="layer1"
     transform="translate(0,-197.78122)"
     style="display:inline">
    <text
       xml:space="preserve"
       style="font-style:normal;font-weight:normal;font-size:7.05557px;line-height:1.25;font-family:sans-serif;letter-spacing:0px;word-spacing:0px;fill:#000000;fill-opacity:1;stroke:none;stroke-width:0.264583"
       x="9.695859"
       y="209.58165"
       id="text52"><tspan
         sodipodi:role="line"
         id="tspan50"
         x="9.695859"
         y="209.58165"
         style="font-style:normal;font-variant:normal;font-weight:200;font-stretch:normal;font-size:7.05557px;font-family:Manrope;-inkscape-font-specification:'Manrope Ultra-Light';text-align:center;text-anchor:middle;fill:#000000;fill-opacity:1;stroke-width:0.264583">A</tspan></text>
    <path
       id="path1522"
       style="opacity:1;fill:none;fill-opacity:1;stroke:#000000;stroke-width:0.296333;stroke-linecap:round;stroke-linejoin:round;stroke-miterlimit:4;stroke-dasharray:none;stroke-opacity:1;paint-order:markers fill stroke"
       d="m 11.068477,217.47441 c 0.390953,0.0101 0.777918,-0.12928 1.069613,-0.42098 0.583389,-0.58339 0.558069,-1.548 -0.05682,-2.16289 l -0.314717,-0.31452 -2.105873,-2.10626 -2.106262,2.10626 -0.314523,0.31452 c -0.614882,0.61489 -0.640206,1.5795 -0.05682,2.16289 0.58339,0.58339 1.548,0.55807 2.162882,-0.0568 l 0.314718,-0.31473 0.314524,0.31473 c 0.307442,0.30743 0.702316,0.46752 1.09327,0.47779 z"
       sodipodi:nodetypes="ssccccsssccs" />
    <text
       xml:space="preserve"
       style="font-style:normal;font-weight:normal;font-size:7.05557px;line-height:1.25;font-family:sans-serif;letter-spacing:0px;word-spacing:0px;fill:#000000;fill-opacity:1;stroke:none;stroke-width:0.264583"
       x="-49.835396"
       y="-285.19955"
       id="text1549"
       transform="scale(-1)"><tspan
         sodipodi:role="line"
         id="tspan1547"
         x="-49.835396"
         y="-285.19955"
         style="font-style:normal;font-variant:normal;font-weight:200;font-stretch:normal;font-size:7.05557px;font-family:Manrope;-inkscape-font-specification:'Manrope Ultra-Light';text-align:center;text-anchor:middle;fill:#000000;fill-opacity:1;stroke-width:0.264583">A</tspan></text>
    <path
       id="path1555"
       style="opacity:1;fill:none;fill-opacity:1;stroke:#000000;stroke-width:0.296333;stroke-linecap:round;stroke-linejoin:round;stroke-miterlimit:4;stroke-dasharray:none;stroke-opacity:1;paint-order:markers fill stroke"
       d="m 48.462787,277.30678 c -0.39095,-0.0101 -0.77791,0.12928 -1.06961,0.42098 -0.58339,0.58339 -0.55807,1.548 0.0568,2.16289 l 0.31472,0.31452 2.10587,2.10626 2.10626,-2.10626 0.31453,-0.31452 c 0.61488,-0.61489 0.6402,-1.5795 0.0568,-2.16289 -0.58339,-0.58339 -1.548,-0.55807 -2.16289,0.0568 l -0.31471,0.31473 -0.31453,-0.31473 c -0.30744,-0.30743 -0.70231,-0.46752 -1.09327,-0.47779 z"
       sodipodi:nodetypes="ssccccsssccs" />
    <path
       id="path1522-3-7-02"
       style="opacity:1;fill:none;fill-opacity:1;stroke:#000000;stroke-width:0.296333;stroke-linecap:round;stroke-linejoin:round;stroke-miterlimit:4;stroke-dasharray:none;stroke-opacity:1;paint-order:markers fill stroke"
       d="m 34.147727,255.17837 c 1.216865,0.03 2.421343,-0.40225 3.329263,-1.31023 1.815853,-1.81594 1.737043,-4.81843 -0.17681,-6.73223 l -0.979517,-0.97862 -6.554732,-6.55592 -6.555924,6.55592 -0.978915,0.97862 c -1.913875,1.9138 -1.992705,4.91629 -0.176812,6.73223 1.815852,1.81574 4.818291,1.737 6.732164,-0.17711 l 0.979517,-0.97961 0.978915,0.97961 c 0.956902,0.9566 2.186025,1.45521 3.402911,1.48714 z"
       sodipodi:nodetypes="ssccccsssccs" />
  </g>
</svg>
